<svg width="40" height="28" viewBox="0 0 40 28" fill="none" xmlns="http://www.w3.org/2000/svg">
<path d="M21.4701 15.323L15.309 26.0947L9.14797 15.323H21.4701ZM23.1206 14.3602H7.49078L15.309 28L23.1206 14.3602Z" fill="#232323"/>
<path d="M32.1818 1.92545L38.3428 12.6972H26.0207L32.1818 1.92545ZM32.1818 0L24.3635 13.6397H40L32.1818 0Z" fill="#232323"/>
<path d="M0 0L6.55532 12.0644L13.7187 0.302939L0 0Z" fill="#232323"/>
<path d="M15.3092 1.05707L22.1852 13.0541H8.41974L15.3092 1.05707Z" fill="#232323"/>
<path d="M23.956 15.673L30.8387 28H16.7458L23.7421 15.673H23.956Z" fill="#232323"/>
<path d="M25.4461 14.9257L32.1818 27.0641L39.0111 14.9257H25.4461Z" fill="#232323"/>
</svg>
