<svg width="46" height="46" viewBox="0 0 46 46" fill="none" xmlns="http://www.w3.org/2000/svg">
<rect width="46" height="46" rx="23" fill="#232323"/>
<path d="M13.1112 12L12 13.1104L13.9575 16.4934L15.227 16.3073L22.9758 24.0517L22.3148 24.686C21.9763 25.0243 21.9763 25.5368 22.3148 25.8751L22.6584 26.2193C22.9969 26.5576 23.5149 26.5576 23.7688 26.2193L24.7742 27.2232C24.6896 27.7306 24.7742 28.3336 25.1974 28.7565L29.7725 33.3023C30.7034 34.2326 32.2268 34.2326 33.1577 33.3023C34.2579 32.2874 34.2478 30.7702 33.3168 29.8398L28.7679 25.267C28.3448 24.8441 27.7414 24.675 27.2336 24.8441L26.1224 23.8402C26.3763 23.5019 26.3763 22.9844 26.1224 22.7298L25.805 22.4135C25.7281 22.3333 25.6357 22.2695 25.5335 22.2259C25.4312 22.1824 25.3212 22.1599 25.21 22.1599C25.0989 22.1599 24.9889 22.1824 24.8866 22.2259C24.7844 22.2695 24.692 22.3333 24.6151 22.4135L24.0599 22.9683L16.3111 15.2248L16.4956 13.9562L13.1112 12ZM29.6142 12.0262C27.9445 11.8875 25.7305 12.9937 24.6946 13.9553C23.4201 15.229 23.6283 16.8942 24.6413 18.502L22.8438 20.2992L24.1132 21.7259C24.7903 21.1339 25.7889 21.1339 26.466 21.7259L26.8104 22.0693L26.89 22.1488L27.6305 21.4088C29.1606 22.3078 30.7534 22.4372 31.9678 21.2235C33.1527 20.1241 34.4374 17.4127 33.8449 15.8058L31.4651 18.2635C31.1266 18.6018 30.6137 18.6018 30.2752 18.2635L27.815 15.8058C27.7348 15.7289 27.6709 15.6366 27.6273 15.5344C27.5837 15.4323 27.5612 15.3223 27.5612 15.2112C27.5612 15.1002 27.5837 14.9902 27.6273 14.8881C27.6709 14.7859 27.7348 14.6936 27.815 14.6167L30.2761 12.159C30.0645 12.0846 29.8529 12.0465 29.6142 12.0262ZM20.3048 22.5716L17.2361 25.6374C16.9064 25.5642 16.5693 25.5287 16.2315 25.5317C13.8619 25.5317 12 27.3923 12 29.7603C12 32.1284 13.8619 33.989 16.2315 33.989C18.6012 33.989 20.4631 32.1284 20.4631 29.7603C20.4631 29.3265 20.3945 28.9095 20.2778 28.518L22.0762 26.7208L21.8121 26.3774C21.1351 25.7008 21.1401 24.6758 21.7326 23.9984L20.3048 22.5716ZM26.8637 26.4307C26.9695 26.4307 27.0694 26.451 27.154 26.5364L32.1532 31.5313C32.3224 31.7005 32.3224 31.9694 32.1532 32.1385C31.9839 32.3077 31.7131 32.3077 31.5438 32.1385L26.5464 27.1437C26.3771 26.9745 26.3771 26.7056 26.5464 26.5364C26.631 26.4519 26.7579 26.4307 26.8637 26.4307ZM16.8138 27.5657L18.4269 29.1785L17.8446 31.3715L15.6501 31.9533L14.0362 30.3405L14.6185 28.1475L16.8138 27.5657Z" fill="white"/>
</svg>
