<svg width="104" height="22" viewBox="0 0 104 22" fill="none" xmlns="http://www.w3.org/2000/svg">
<path d="M13.2275 9.16683L11 1.8335L8.77249 9.16683H1.83333L7.49833 13.2093L5.34416 20.1668L11 15.8677L16.665 20.1668L14.5108 13.2093L20.1667 9.16683H13.2275Z" fill="#F24E1E"/>
<path d="M33.2275 9.16683L31 1.8335L28.7725 9.16683H21.8333L27.4983 13.2093L25.3442 20.1668L31 15.8677L36.665 20.1668L34.5108 13.2093L40.1667 9.16683H33.2275Z" fill="#F24E1E"/>
<path d="M53.2275 9.16683L51 1.8335L48.7725 9.16683H41.8333L47.4983 13.2093L45.3442 20.1668L51 15.8677L56.665 20.1668L54.5108 13.2093L60.1667 9.16683H53.2275Z" fill="#F24E1E"/>
<path d="M74.2275 9.16683L72 1.8335L69.7725 9.16683H62.8333L68.4983 13.2093L66.3442 20.1668L72 15.8677L77.665 20.1668L75.5108 13.2093L81.1667 9.16683H74.2275Z" fill="#F24E1E"/>
<path d="M102.167 8.47016L95.5758 7.90183L93 1.8335L90.4242 7.911L83.8333 8.47016L88.8383 12.806L87.335 19.2502L93 15.831L98.665 19.2502L97.1708 12.806L102.167 8.47016ZM93 14.1168V5.59183L94.5675 9.29516L98.5825 9.6435L95.5392 12.2835L96.4558 16.2068L93 14.1168Z" fill="#F24E1E"/>
</svg>
