<svg width="30" height="30" viewBox="0 0 30 30" fill="none" xmlns="http://www.w3.org/2000/svg">
<rect width="30" height="30" rx="4" fill="#232323"/>
<path d="M20 20L17.5872 17.5872M17.5872 17.5872C18 17.1745 18.3273 16.6846 18.5507 16.1453C18.7741 15.6061 18.889 15.0282 18.889 14.4445C18.889 13.8608 18.7741 13.2829 18.5507 12.7437C18.3273 12.2044 18 11.7145 17.5872 11.3018C17.1745 10.8891 16.6846 10.5617 16.1453 10.3383C15.6061 10.115 15.0282 10 14.4445 10C13.8608 10 13.2829 10.115 12.7437 10.3383C12.2044 10.5617 11.7145 10.8891 11.3018 11.3018C10.4683 12.1353 10 13.2658 10 14.4445C10 15.6233 10.4683 16.7537 11.3018 17.5872C12.1353 18.4208 13.2658 18.889 14.4445 18.889C15.6233 18.889 16.7537 18.4208 17.5872 17.5872Z" stroke="white" stroke-width="1.5" stroke-linecap="round" stroke-linejoin="round"/>
</svg>
