<svg width="48" height="48" viewBox="0 0 48 48" fill="none" xmlns="http://www.w3.org/2000/svg">
<rect width="48" height="48" rx="24" fill="#232323"/>
<path d="M16.86 16.03L14.03 18.86L17.21 22.04V24.87L18.63 26.28L24.28 20.63L22.87 19.21H20.04L16.86 16.03ZM29 18V19.5C30 19.5 30.85 20.33 30.85 21.35C30.85 22.37 30 23.2 29 23.2V24.7C31.24 24.7 33 26.53 33 28.77V33H34.5V28.76C34.5 26.54 33.22 24.62 31.35 23.73C31.97 23.12 32.35 22.28 32.35 21.35C32.35 19.5 30.85 18 29 18ZM23.93 23.1L21.1 25.93L26.05 30.88L26.76 30.17L28.88 32.29L31 33L30.29 30.88L28.17 28.76L28.88 28.05L23.93 23.1Z" fill="white"/>
</svg>
